REM DIRINDEX 1\2,1\3,1\4,1\5,1\6
REM DIRNAME folder01,folder02,folder03,folder04,folder05,folder06
TITLE ""
FILE "Disc2Track06.mp3" MP3
  TRACK 01 AUDIO
    TITLE "3:cjc030_02171"
    INDEX 01 00:00:00
  TRACK 02 AUDIO
    TITLE "0:"
    INDEX 01 00:01:07
  TRACK 03 AUDIO
    TITLE "4:cjc030_02172"
    INDEX 01 00:01:15
  TRACK 04 AUDIO
    TITLE "0:"
    INDEX 01 00:02:00
  TRACK 05 AUDIO
    TITLE "5:cjc030_02173"
    INDEX 01 00:02:08
  TRACK 06 AUDIO
    TITLE "0:"
    INDEX 01 00:03:17
  TRACK 07 AUDIO
    TITLE "6:cjc030_02174"
    INDEX 01 00:03:31
  TRACK 08 AUDIO
    TITLE "0:"
    INDEX 01 00:05:03
  TRACK 09 AUDIO
    TITLE "3:cjc030_02175"
    INDEX 01 00:05:52
  TRACK 10 AUDIO
    TITLE "0:"
    INDEX 01 00:07:21
  TRACK 11 AUDIO
    TITLE "4:cjc030_02176"
    INDEX 01 00:07:29
  TRACK 12 AUDIO
    TITLE "0:"
    INDEX 01 00:08:66
  TRACK 13 AUDIO
    TITLE "5:cjc030_02177"
    INDEX 01 00:09:00
  TRACK 14 AUDIO
    TITLE "0:"
    INDEX 01 00:10:45
  TRACK 15 AUDIO
    TITLE "6:cjc030_02178"
    INDEX 01 00:10:57
  TRACK 16 AUDIO
    TITLE "0:"
    INDEX 01 00:14:23
  TRACK 17 AUDIO
    TITLE "3:cjc030_02179"
    INDEX 01 00:14:70
  TRACK 18 AUDIO
    TITLE "0:"
    INDEX 01 00:16:24
  TRACK 19 AUDIO
    TITLE "4:cjc030_02180"
    INDEX 01 00:16:32
  TRACK 20 AUDIO
    TITLE "0:"
    INDEX 01 00:17:21
  TRACK 21 AUDIO
    TITLE "5:cjc030_02181"
    INDEX 01 00:17:29
  TRACK 22 AUDIO
    TITLE "0:"
    INDEX 01 00:18:58
  TRACK 23 AUDIO
    TITLE "3:cjc030_02182"
    INDEX 01 00:19:30
  TRACK 24 AUDIO
    TITLE "0:"
    INDEX 01 00:21:09
  TRACK 25 AUDIO
    TITLE "4:cjc030_02183"
    INDEX 01 00:21:19
  TRACK 26 AUDIO
    TITLE "0:"
    INDEX 01 00:22:52
  TRACK 27 AUDIO
    TITLE "5:cjc030_02184"
    INDEX 01 00:22:62
  TRACK 28 AUDIO
    TITLE "0:"
    INDEX 01 00:24:41
  TRACK 29 AUDIO
    TITLE "6:cjc030_02185"
    INDEX 01 00:24:53
  TRACK 30 AUDIO
    TITLE "0:"
    INDEX 01 00:28:02
  TRACK 31 AUDIO
    TITLE "3:cjc030_02186"
    INDEX 01 00:28:49
  TRACK 32 AUDIO
    TITLE "0:"
    INDEX 01 00:30:03
  TRACK 33 AUDIO
    TITLE "4:cjc030_02187"
    INDEX 01 00:30:14
  TRACK 34 AUDIO
    TITLE "0:"
    INDEX 01 00:31:06
  TRACK 35 AUDIO
    TITLE "5:cjc030_02188"
    INDEX 01 00:31:14
  TRACK 36 AUDIO
    TITLE "0:"
    INDEX 01 00:32:45
  TRACK 37 AUDIO
    TITLE "6:cjc030_02189"
    INDEX 01 00:32:58
  TRACK 38 AUDIO
    TITLE "0:"
    INDEX 01 00:34:57
  TRACK 39 AUDIO
    TITLE "3:cjc030_02190"
    INDEX 01 00:35:29
  TRACK 40 AUDIO
    TITLE "0:"
    INDEX 01 00:36:46
  TRACK 41 AUDIO
    TITLE "4:cjc030_02191"
    INDEX 01 00:36:54
  TRACK 42 AUDIO
    TITLE "0:"
    INDEX 01 00:37:50
  TRACK 43 AUDIO
    TITLE "5:cjc030_02192"
    INDEX 01 00:37:59
  TRACK 44 AUDIO
    TITLE "0:"
    INDEX 01 00:39:00
  TRACK 45 AUDIO
    TITLE "6:cjc030_02193"
    INDEX 01 00:39:13
  TRACK 46 AUDIO
    TITLE "0:"
    INDEX 01 00:40:66
  TRACK 47 AUDIO
    TITLE "3:cjc030_02194"
    INDEX 01 00:41:44
  TRACK 48 AUDIO
    TITLE "0:"
    INDEX 01 00:42:53
  TRACK 49 AUDIO
    TITLE "4:cjc030_02195"
    INDEX 01 00:42:63
  TRACK 50 AUDIO
    TITLE "0:"
    INDEX 01 00:44:50
  TRACK 51 AUDIO
    TITLE "5:cjc030_02196"
    INDEX 01 00:44:56
  TRACK 52 AUDIO
    TITLE "0:"
    INDEX 01 00:45:71
  TRACK 53 AUDIO
    TITLE "6:cjc030_02197"
    INDEX 01 00:46:07
  TRACK 54 AUDIO
    TITLE "0:"
    INDEX 01 00:47:54
  TRACK 55 AUDIO
    TITLE "3:cjc030_02198"
    INDEX 01 00:48:28
  TRACK 56 AUDIO
    TITLE "0:"
    INDEX 01 00:49:39
  TRACK 57 AUDIO
    TITLE "4:cjc030_02199"
    INDEX 01 00:49:51
  TRACK 58 AUDIO
    TITLE "0:"
    INDEX 01 00:50:46
  TRACK 59 AUDIO
    TITLE "5:cjc030_02200"
    INDEX 01 00:50:54
  TRACK 60 AUDIO
    TITLE "0:"
    INDEX 01 00:51:69
  TRACK 61 AUDIO
    TITLE "6:cjc030_02201"
    INDEX 01 00:52:04
  TRACK 62 AUDIO
    TITLE "0:"
    INDEX 01 00:53:37
